<svg width="24" height="24" viewBox="0 0 24 24" fill="none" xmlns="http://www.w3.org/2000/svg">
<path d="M23.3333 8.27048V21C23.3333 22.2891 22.2891 23.3333 21 23.3333H4.66665C3.37748 23.3333 2.33331 22.2891 2.33331 21V8.27048C2.33331 7.95548 2.39748 7.64281 2.52115 7.35348L4.06115 3.74965C4.42865 2.89098 5.27215 2.33331 6.20665 2.33331H19.46C20.3945 2.33331 21.238 2.89098 21.6055 3.74965L23.1455 7.35348C23.2691 7.64398 23.3333 7.95548 23.3333 8.27048Z" stroke="#292929" stroke-width="1.2" stroke-linecap="round" stroke-linejoin="round"/>
<path d="M21 5.93717V18.6667C21 19.9558 19.9558 21 18.6667 21H2.33333C1.04417 21 0 19.9558 0 18.6667V5.93717C0 5.62217 0.0641667 5.3095 0.187833 5.02017L1.72783 1.41633C2.09533 0.557667 2.93883 0 3.87333 0H17.1267C18.0612 0 18.9047 0.557667 19.2722 1.41633L20.8122 5.02017C20.9358 5.31067 21 5.62217 21 5.93717Z" fill="#FBE8BB"/>
<path d="M15.1666 2.33325L16.3333 8.16658V11.9291C16.3333 12.4284 15.8841 12.8333 15.3299 12.8333H10.3366C9.78242 12.8333 9.33325 12.4284 9.33325 11.9291V8.16658L10.4999 2.33325" fill="white"/>
<path d="M15.1666 2.33325L16.3333 8.16659V11.9291C16.3333 12.4284 15.8841 12.8333 15.3299 12.8333H10.3366C9.78242 12.8333 9.33325 12.4284 9.33325 11.9291V8.16659L10.4999 2.33325" stroke="#292929" stroke-width="1.2" stroke-linecap="round" stroke-linejoin="round"/>
<path d="M23.3333 8.27048V21C23.3333 22.2891 22.2891 23.3333 21 23.3333H4.66665C3.37748 23.3333 2.33331 22.2891 2.33331 21V8.27048C2.33331 7.95548 2.39748 7.64281 2.52115 7.35348L4.06115 3.74965C4.42865 2.89098 5.27215 2.33331 6.20665 2.33331H19.46C20.3945 2.33331 21.238 2.89098 21.6055 3.74965L23.1455 7.35348C23.2691 7.64398 23.3333 7.95548 23.3333 8.27048Z" stroke="#292929" stroke-width="1.2" stroke-linecap="round" stroke-linejoin="round"/>
<path d="M2.33331 8.16669H23.3216" stroke="#292929" stroke-width="1.2" stroke-linecap="round" stroke-linejoin="round"/>
<path d="M5.83331 18.6667H8.16665" stroke="#FD9339" stroke-width="1.2" stroke-linecap="round" stroke-linejoin="round"/>
</svg>
